<svg width="34" height="34" viewBox="0 0 34 34" fill="none" xmlns="http://www.w3.org/2000/svg">
<path d="M22.4254 7.87909L16.9706 13.3339L11.5157 7.87909C10.8464 7.20973 9.76073 7.20973 9.09137 7.87909L7.87919 9.09127C7.20984 9.76062 7.20984 10.8463 7.87919 11.5156L13.334 16.9705L7.87919 22.4253C7.20984 23.0946 7.20984 24.1803 7.87919 24.8496L9.09137 26.0618C9.76073 26.7312 10.8464 26.7312 11.5157 26.0618L16.9706 20.607L22.4254 26.0618C23.0947 26.7312 24.1804 26.7312 24.8498 26.0618L26.0619 24.8496C26.7313 24.1803 26.7313 23.0946 26.0619 22.4253L20.6071 16.9705L26.0619 11.5156C26.7313 10.8463 26.7313 9.76062 26.0619 9.09127L24.8498 7.87909C24.1804 7.20973 23.0947 7.20973 22.4254 7.87909Z" fill="black"/>
</svg>
